<mxfile host="app.diagrams.net" modified="2023-09-26T09:18:14.751Z" agent="Mozilla/5.0 (Windows NT 10.0; Win64; x64) AppleWebKit/537.36 (KHTML, like Gecko) Chrome/117.0.0.0 Safari/537.36" version="21.8.2" etag="-vhtaTyZYuwWS46AlfXh" type="github">
  <diagram id="Ybg588DrY6kqlKBgJlJa" name="Page-1">
    <mxGraphModel dx="1313" dy="718" grid="1" gridSize="10" guides="1" tooltips="1" connect="1" arrows="1" fold="1" page="1" pageScale="1" pageWidth="827" pageHeight="1169" math="0" shadow="0">
      <root>
        <mxCell id="0" />
        <mxCell id="1" parent="0" />
        <mxCell id="GSz718LCiXBRjERJB6JE-2" value="Vision DB" style="shape=cylinder3;whiteSpace=wrap;html=1;boundedLbl=1;backgroundOutline=1;size=15;" vertex="1" parent="1">
          <mxGeometry x="314" y="405" width="200" height="60" as="geometry" />
        </mxCell>
        <mxCell id="GSz718LCiXBRjERJB6JE-3" value="RDV DB" style="shape=cylinder3;whiteSpace=wrap;html=1;boundedLbl=1;backgroundOutline=1;size=15;" vertex="1" parent="1">
          <mxGeometry x="154" y="525" width="200" height="60" as="geometry" />
        </mxCell>
        <mxCell id="GSz718LCiXBRjERJB6JE-4" value="Nimbus DB" style="shape=cylinder3;whiteSpace=wrap;html=1;boundedLbl=1;backgroundOutline=1;size=15;" vertex="1" parent="1">
          <mxGeometry x="474" y="525" width="200" height="60" as="geometry" />
        </mxCell>
        <mxCell id="GSz718LCiXBRjERJB6JE-8" value="" style="endArrow=classic;html=1;rounded=0;entryX=0.145;entryY=1;entryDx=0;entryDy=-4.35;entryPerimeter=0;exitX=0.855;exitY=0;exitDx=0;exitDy=4.35;exitPerimeter=0;" edge="1" parent="1" source="GSz718LCiXBRjERJB6JE-3" target="GSz718LCiXBRjERJB6JE-2">
          <mxGeometry width="50" height="50" relative="1" as="geometry">
            <mxPoint x="104" y="505" as="sourcePoint" />
            <mxPoint x="154" y="455" as="targetPoint" />
          </mxGeometry>
        </mxCell>
        <mxCell id="GSz718LCiXBRjERJB6JE-9" value="" style="endArrow=classic;html=1;rounded=0;entryX=0.855;entryY=1;entryDx=0;entryDy=-4.35;entryPerimeter=0;exitX=0.145;exitY=0;exitDx=0;exitDy=4.35;exitPerimeter=0;" edge="1" parent="1" source="GSz718LCiXBRjERJB6JE-4" target="GSz718LCiXBRjERJB6JE-2">
          <mxGeometry width="50" height="50" relative="1" as="geometry">
            <mxPoint x="424" y="655" as="sourcePoint" />
            <mxPoint x="474" y="605" as="targetPoint" />
          </mxGeometry>
        </mxCell>
        <mxCell id="GSz718LCiXBRjERJB6JE-12" value="Core Banking APIs" style="rounded=0;whiteSpace=wrap;html=1;" vertex="1" parent="1">
          <mxGeometry x="600" y="260" width="120" height="60" as="geometry" />
        </mxCell>
        <mxCell id="GSz718LCiXBRjERJB6JE-14" value="" style="rounded=0;whiteSpace=wrap;html=1;" vertex="1" parent="1">
          <mxGeometry x="319" y="120" width="190" height="210" as="geometry" />
        </mxCell>
        <mxCell id="GSz718LCiXBRjERJB6JE-17" value="Vision REST" style="rounded=0;whiteSpace=wrap;html=1;" vertex="1" parent="1">
          <mxGeometry x="354" y="257.5" width="120" height="60" as="geometry" />
        </mxCell>
        <mxCell id="GSz718LCiXBRjERJB6JE-18" value="Vision Web" style="rounded=0;whiteSpace=wrap;html=1;" vertex="1" parent="1">
          <mxGeometry x="354" y="132.5" width="120" height="60" as="geometry" />
        </mxCell>
        <mxCell id="GSz718LCiXBRjERJB6JE-19" value="" style="endArrow=classic;startArrow=classic;html=1;rounded=0;entryX=0.5;entryY=1;entryDx=0;entryDy=0;exitX=0.5;exitY=0;exitDx=0;exitDy=0;" edge="1" parent="1" source="GSz718LCiXBRjERJB6JE-17" target="GSz718LCiXBRjERJB6JE-18">
          <mxGeometry width="50" height="50" relative="1" as="geometry">
            <mxPoint x="200" y="292.5" as="sourcePoint" />
            <mxPoint x="250" y="242.5" as="targetPoint" />
          </mxGeometry>
        </mxCell>
        <mxCell id="GSz718LCiXBRjERJB6JE-20" value="" style="endArrow=classic;html=1;rounded=0;entryX=1;entryY=0.5;entryDx=0;entryDy=0;exitX=0;exitY=0.5;exitDx=0;exitDy=0;" edge="1" parent="1" source="GSz718LCiXBRjERJB6JE-12" target="GSz718LCiXBRjERJB6JE-17">
          <mxGeometry width="50" height="50" relative="1" as="geometry">
            <mxPoint x="630" y="450" as="sourcePoint" />
            <mxPoint x="680" y="400" as="targetPoint" />
          </mxGeometry>
        </mxCell>
        <mxCell id="GSz718LCiXBRjERJB6JE-21" value="" style="endArrow=classic;startArrow=classic;html=1;rounded=0;entryX=0.5;entryY=1;entryDx=0;entryDy=0;exitX=0.5;exitY=0;exitDx=0;exitDy=0;exitPerimeter=0;" edge="1" parent="1" source="GSz718LCiXBRjERJB6JE-2" target="GSz718LCiXBRjERJB6JE-17">
          <mxGeometry width="50" height="50" relative="1" as="geometry">
            <mxPoint x="140" y="390" as="sourcePoint" />
            <mxPoint x="190" y="340" as="targetPoint" />
          </mxGeometry>
        </mxCell>
      </root>
    </mxGraphModel>
  </diagram>
</mxfile>
